Coordinates
version=1
nRows=8
nColumns=63
inDegrees=yes

Units are S.I. units (second, meters, Newtons, ...)
If the header above contains a line with 'inDegrees', this indicates whether rotational values are in degrees (yes) or radians (no).

endheader
time	pelvis_tilt	pelvis_list	pelvis_rotation	pelvis_tx	pelvis_ty	pelvis_tz	hip_flexion_r	hip_adduction_r	hip_rotation_r	knee_angle_r	knee_angle_r_beta	ankle_angle_r	subtalar_angle_r	mtp_angle_r	hip_flexion_l	hip_adduction_l	hip_rotation_l	knee_angle_l	knee_angle_l_beta	ankle_angle_l	subtalar_angle_l	mtp_angle_l	L5_S1_Flex_Ext	L5_S1_Lat_Bending	L5_S1_axial_rotation	L4_L5_Flex_Ext	L4_L5_Lat_Bending	L4_L5_axial_rotation	L3_L4_Flex_Ext	L3_L4_Lat_Bending	L3_L4_axial_rotation	L2_L3_Flex_Ext	L2_L3_Lat_Bending	L2_L3_axial_rotation	L1_L2_Flex_Ext	L1_L2_Lat_Bending	L1_L2_axial_rotation	L1_T12_Flex_Ext	L1_T12_Lat_Bending	L1_T12_axial_rotation	Abs_r3	Abs_r2	Abs_r1	Abs_t1	Abs_t2	neck_flexion	neck_bending	neck_rotation	arm_flex_r	arm_add_r	arm_rot_r	elbow_flex_r	pro_sup_r	wrist_flex_r	wrist_dev_r	arm_flex_l	arm_add_l	arm_rot_l	elbow_flex_l	pro_sup_l	wrist_flex_l	wrist_dev_l
0.000000	2.628416	-5.956921	101.987532	0.260753	0.782887	0.915751	3.527095	1.560049	-2.051128	6.269346	0.109421	22.803846	1.835719	0.000000	4.098277	-1.654988	8.240829	2.443858	0.042653	26.246382	-6.307994	0.000000	-0.071378	0.420613	1.019637	-0.132556	0.559415	1.083365	-0.117267	1.022679	1.083365	-0.081578	1.022679	0.892183	-0.066282	0.857714	0.828455	-0.040785	0.651530	0.764728	-0.509845	4.758059	5.670917	0.000000	0.000000	23.570710	-5.171838	-0.435755	8.622794	-11.442088	43.436944	44.892998	86.208274	4.540820	9.622182	15.474718	-7.604478	63.888089	45.878547	29.337772	-6.400617	8.310018
0.016667	2.600721	-6.090448	102.411792	0.259883	0.782446	0.917024	3.767449	1.495385	-1.611729	6.281300	0.109629	22.712772	0.572787	0.000000	4.518472	-1.529743	8.122978	2.790027	0.048695	26.539248	-5.638778	0.000000	-0.061354	0.415799	0.922427	-0.113941	0.553012	0.980078	-0.100799	1.010973	0.980078	-0.070122	1.010973	0.807123	-0.056973	0.847897	0.749472	-0.035058	0.644072	0.691820	-0.438246	4.703597	5.130260	0.000000	0.000000	24.179705	-5.202606	-0.450862	8.852787	-11.382441	43.885437	44.517231	86.074686	4.143268	9.050427	15.796560	-7.155310	62.840694	45.519702	35.814953	-5.925379	11.543753
0.033333	2.586510	-6.205599	102.783273	0.259128	0.782089	0.918157	3.974447	1.450946	-1.156461	6.280582	0.109617	22.605767	-0.613775	0.000000	4.884951	-1.431544	8.060746	3.094383	0.054007	26.772622	-5.111331	0.000000	-0.052855	0.413185	0.836333	-0.098156	0.549537	0.888604	-0.086835	1.004619	0.888604	-0.060408	1.004619	0.731791	-0.049081	0.842568	0.679521	-0.030201	0.640024	0.627250	-0.377535	4.674037	4.651433	0.000000	0.000000	24.680306	-5.235341	-0.441819	9.059383	-11.343813	44.238191	44.226766	85.956412	3.904641	8.645607	16.050234	-6.781980	61.976170	45.250947	40.692770	-5.688670	14.110722
0.050000	2.584565	-6.303345	103.103995	0.258480	0.781809	0.919155	4.150301	1.424962	-0.693606	6.268696	0.109409	22.487665	-1.717196	0.000000	5.200366	-1.358471	8.046618	3.358923	0.058624	26.951493	-4.713842	0.000000	-0.045764	0.412591	0.761006	-0.084989	0.548746	0.808569	-0.075186	1.003174	0.808569	-0.052304	1.003174	0.665880	-0.042497	0.841356	0.618317	-0.026150	0.639104	0.570754	-0.326890	4.667312	4.232485	0.000000	0.000000	25.082244	-5.268252	-0.410979	9.243279	-11.324476	44.502434	44.014389	85.853197	3.810724	8.391808	16.242334	-6.477785	61.279663	45.063309	44.128777	-5.663125	16.072299
0.066667	2.593663	-6.384658	103.375980	0.257934	0.781599	0.920023	4.297218	1.415662	-0.231441	6.247148	0.109033	22.363299	-2.730705	0.000000	5.467369	-1.308603	8.073082	3.585643	0.062581	27.080852	-4.434505	0.000000	-0.039968	0.413833	0.696093	-0.074225	0.550398	0.739599	-0.065664	1.006193	0.739599	-0.045680	1.006193	0.609082	-0.037115	0.843888	0.565576	-0.022838	0.641027	0.522070	-0.285489	4.681360	3.871462	0.000000	0.000000	25.395250	-5.299550	-0.360692	9.405175	-11.322708	44.685392	43.872885	85.764792	3.847304	8.273116	16.379458	-6.236020	60.736318	44.947816	46.280524	-5.821379	17.489863
0.083333	2.612586	-6.450508	103.601248	0.257482	0.781453	0.920767	4.417409	1.421276	0.221752	6.217442	0.108515	22.237501	-3.647531	0.000000	5.688614	-1.280019	8.132623	3.776539	0.065913	27.165689	-4.261511	0.000000	-0.035351	0.416728	0.641244	-0.065650	0.554249	0.681322	-0.058078	1.013233	0.681322	-0.040403	1.013233	0.561089	-0.032827	0.849793	0.521011	-0.020200	0.645512	0.480933	-0.252509	4.714115	3.566409	0.000000	0.000000	25.629052	-5.327443	-0.293310	9.545765	-11.336783	44.794292	43.795043	85.690941	4.000166	8.273617	16.468202	-6.049979	60.331283	44.895497	47.305565	-6.136065	18.424789
0.100000	2.640114	-6.501867	103.781820	0.257117	0.781364	0.921392	4.513083	1.440035	0.657694	6.181083	0.107880	22.115106	-4.460906	0.000000	5.866752	-1.270798	8.217729	3.933607	0.068654	27.210993	-4.183053	0.000000	-0.031798	0.421095	0.596108	-0.059051	0.560057	0.633365	-0.052240	1.023851	0.633365	-0.036342	1.023851	0.521594	-0.029527	0.858697	0.484338	-0.018169	0.652276	0.447081	-0.227127	4.763513	3.315374	0.000000	0.000000	25.793382	-5.350142	-0.211184	9.665748	-11.364975	44.836363	43.773647	85.631394	4.255098	8.377397	16.515160	-5.912958	60.049703	44.897379	47.361450	-6.579820	18.938453
0.116667	2.675025	-6.539704	103.919719	0.256834	0.781326	0.921903	4.586449	1.470168	1.068106	6.139576	0.107156	22.000947	-5.164057	0.000000	6.004437	-1.279019	8.320886	4.058844	0.070840	27.221756	-4.187322	0.000000	-0.029193	0.426751	0.560333	-0.054214	0.567578	0.595353	-0.047961	1.037601	0.595353	-0.033365	1.037601	0.490291	-0.027109	0.870230	0.455270	-0.016681	0.661037	0.420250	-0.208522	4.827488	3.116402	0.000000	0.000000	25.897968	-5.365857	-0.116666	9.765822	-11.405559	44.818832	43.801484	85.585897	4.597885	8.568541	16.526930	-5.818253	59.876724	44.944492	46.605732	-7.125277	19.092232
